<mxfile host="app.diagrams.net" modified="2023-09-13T09:23:04.645Z" agent="Mozilla/5.0 (Windows NT 10.0; Win64; x64) AppleWebKit/537.36 (KHTML, like Gecko) Chrome/116.0.0.0 Safari/537.36" version="21.7.4" etag="pwoBdTxLbBxUf5HbesN7" type="github">
  <diagram name="Page-1" id="PZSwI45-GHl3egPPELJr">
    <mxGraphModel>
      <root>
        <mxCell id="0" />
        <mxCell id="1" parent="0" />
      </root>
    </mxGraphModel>
  </diagram>
</mxfile>
